<mxfile host="app.diagrams.net" modified="2024-03-19T00:28:51.766Z" agent="Mozilla/5.0 (X11; Linux x86_64; rv:123.0) Gecko/20100101 Firefox/123.0" etag="LsYu2cj12C79veF3xFZk" version="24.0.7" type="device">
  <diagram name="Page-1" id="XWyVNuyizgB3aSfF7TEM">
    <mxGraphModel dx="1434" dy="702" grid="1" gridSize="10" guides="1" tooltips="1" connect="1" arrows="1" fold="1" page="1" pageScale="1" pageWidth="850" pageHeight="1100" math="0" shadow="0">
      <root>
        <mxCell id="0" />
        <mxCell id="1" parent="0" />
        <mxCell id="bFMFlsu8lQNefYLDcnnR-1" value="Node" style="swimlane;whiteSpace=wrap;html=1;fillColor=#e1d5e7;strokeColor=#9673a6;" vertex="1" parent="1">
          <mxGeometry x="560" y="470" width="100" height="110" as="geometry" />
        </mxCell>
        <mxCell id="bFMFlsu8lQNefYLDcnnR-2" value="Node" style="swimlane;whiteSpace=wrap;html=1;fillColor=#e1d5e7;strokeColor=#9673a6;" vertex="1" parent="1">
          <mxGeometry x="440" y="470" width="100" height="110" as="geometry" />
        </mxCell>
        <mxCell id="bFMFlsu8lQNefYLDcnnR-3" value="Node" style="swimlane;whiteSpace=wrap;html=1;fillColor=#e1d5e7;strokeColor=#9673a6;" vertex="1" parent="1">
          <mxGeometry x="220" y="470" width="100" height="110" as="geometry" />
        </mxCell>
        <mxCell id="bFMFlsu8lQNefYLDcnnR-4" value="Node" style="swimlane;whiteSpace=wrap;html=1;fillColor=#e1d5e7;strokeColor=#9673a6;" vertex="1" parent="1">
          <mxGeometry x="100" y="470" width="100" height="110" as="geometry" />
        </mxCell>
        <mxCell id="bFMFlsu8lQNefYLDcnnR-5" value="Server" style="swimlane;whiteSpace=wrap;html=1;fillColor=#d5e8d4;strokeColor=#82b366;" vertex="1" parent="1">
          <mxGeometry x="310" y="140" width="140" height="130" as="geometry" />
        </mxCell>
        <mxCell id="bFMFlsu8lQNefYLDcnnR-6" value="&lt;div&gt;&lt;b&gt;Tuple space&lt;/b&gt;&lt;/div&gt;&lt;div&gt;&lt;b&gt;(Storage)&lt;br&gt;&lt;/b&gt;&lt;/div&gt;" style="whiteSpace=wrap;html=1;aspect=fixed;" vertex="1" parent="1">
          <mxGeometry x="340" y="30" width="80" height="80" as="geometry" />
        </mxCell>
        <mxCell id="bFMFlsu8lQNefYLDcnnR-16" value="" style="endArrow=classic;startArrow=classic;html=1;rounded=0;exitX=0.5;exitY=1;exitDx=0;exitDy=0;entryX=0.5;entryY=0;entryDx=0;entryDy=0;" edge="1" parent="1" source="bFMFlsu8lQNefYLDcnnR-6" target="bFMFlsu8lQNefYLDcnnR-5">
          <mxGeometry width="50" height="50" relative="1" as="geometry">
            <mxPoint x="400" y="90" as="sourcePoint" />
            <mxPoint x="450" y="40" as="targetPoint" />
          </mxGeometry>
        </mxCell>
        <mxCell id="bFMFlsu8lQNefYLDcnnR-18" value="" style="endArrow=classic;startArrow=classic;html=1;rounded=0;exitX=0.75;exitY=0;exitDx=0;exitDy=0;entryX=0;entryY=1;entryDx=0;entryDy=0;" edge="1" parent="1" source="bFMFlsu8lQNefYLDcnnR-4" target="bFMFlsu8lQNefYLDcnnR-5">
          <mxGeometry width="50" height="50" relative="1" as="geometry">
            <mxPoint x="400" y="210" as="sourcePoint" />
            <mxPoint x="450" y="160" as="targetPoint" />
          </mxGeometry>
        </mxCell>
        <mxCell id="bFMFlsu8lQNefYLDcnnR-36" value="&lt;b&gt;&lt;font style=&quot;font-size: 13px;&quot;&gt;ALP&lt;/font&gt;&lt;/b&gt;" style="edgeLabel;html=1;align=center;verticalAlign=middle;resizable=0;points=[];" vertex="1" connectable="0" parent="bFMFlsu8lQNefYLDcnnR-18">
          <mxGeometry x="0.4504" y="4" relative="1" as="geometry">
            <mxPoint as="offset" />
          </mxGeometry>
        </mxCell>
        <mxCell id="bFMFlsu8lQNefYLDcnnR-19" value="" style="endArrow=classic;startArrow=classic;html=1;rounded=0;exitX=0.5;exitY=0;exitDx=0;exitDy=0;entryX=0.25;entryY=1;entryDx=0;entryDy=0;" edge="1" parent="1" source="bFMFlsu8lQNefYLDcnnR-3" target="bFMFlsu8lQNefYLDcnnR-5">
          <mxGeometry width="50" height="50" relative="1" as="geometry">
            <mxPoint x="400" y="210" as="sourcePoint" />
            <mxPoint x="450" y="160" as="targetPoint" />
          </mxGeometry>
        </mxCell>
        <mxCell id="bFMFlsu8lQNefYLDcnnR-35" value="&lt;font size=&quot;1&quot;&gt;&lt;b style=&quot;font-size: 13px;&quot;&gt;ALP&lt;/b&gt;&lt;/font&gt;" style="edgeLabel;html=1;align=center;verticalAlign=middle;resizable=0;points=[];" vertex="1" connectable="0" parent="bFMFlsu8lQNefYLDcnnR-19">
          <mxGeometry x="0.3479" y="1" relative="1" as="geometry">
            <mxPoint as="offset" />
          </mxGeometry>
        </mxCell>
        <mxCell id="bFMFlsu8lQNefYLDcnnR-20" value="" style="endArrow=classic;startArrow=classic;html=1;rounded=0;exitX=0.5;exitY=0;exitDx=0;exitDy=0;entryX=0.75;entryY=1;entryDx=0;entryDy=0;" edge="1" parent="1" source="bFMFlsu8lQNefYLDcnnR-2" target="bFMFlsu8lQNefYLDcnnR-5">
          <mxGeometry width="50" height="50" relative="1" as="geometry">
            <mxPoint x="400" y="210" as="sourcePoint" />
            <mxPoint x="450" y="160" as="targetPoint" />
          </mxGeometry>
        </mxCell>
        <mxCell id="bFMFlsu8lQNefYLDcnnR-37" value="&lt;b&gt;&lt;font style=&quot;font-size: 13px;&quot;&gt;ALP&lt;/font&gt;&lt;/b&gt;" style="edgeLabel;html=1;align=center;verticalAlign=middle;resizable=0;points=[];" vertex="1" connectable="0" parent="bFMFlsu8lQNefYLDcnnR-20">
          <mxGeometry x="0.4268" y="-4" relative="1" as="geometry">
            <mxPoint as="offset" />
          </mxGeometry>
        </mxCell>
        <mxCell id="bFMFlsu8lQNefYLDcnnR-21" value="" style="endArrow=classic;startArrow=classic;html=1;rounded=0;exitX=0.25;exitY=0;exitDx=0;exitDy=0;entryX=1;entryY=1;entryDx=0;entryDy=0;" edge="1" parent="1" source="bFMFlsu8lQNefYLDcnnR-1" target="bFMFlsu8lQNefYLDcnnR-5">
          <mxGeometry width="50" height="50" relative="1" as="geometry">
            <mxPoint x="400" y="210" as="sourcePoint" />
            <mxPoint x="450" y="160" as="targetPoint" />
          </mxGeometry>
        </mxCell>
        <mxCell id="bFMFlsu8lQNefYLDcnnR-38" value="&lt;b&gt;&lt;font style=&quot;font-size: 13px;&quot;&gt;ALP&lt;/font&gt;&lt;/b&gt;" style="edgeLabel;html=1;align=center;verticalAlign=middle;resizable=0;points=[];" vertex="1" connectable="0" parent="bFMFlsu8lQNefYLDcnnR-21">
          <mxGeometry x="0.3908" relative="1" as="geometry">
            <mxPoint as="offset" />
          </mxGeometry>
        </mxCell>
        <mxCell id="bFMFlsu8lQNefYLDcnnR-7" value="" style="verticalLabelPosition=bottom;verticalAlign=top;html=1;shape=mxgraph.basic.wave2;dy=0.3;fillColor=#dae8fc;strokeColor=#6c8ebf;" vertex="1" parent="1">
          <mxGeometry x="190" y="400" width="380" height="40" as="geometry" />
        </mxCell>
        <mxCell id="bFMFlsu8lQNefYLDcnnR-8" value="&lt;b&gt;API&lt;/b&gt;" style="text;html=1;align=center;verticalAlign=middle;resizable=0;points=[];autosize=1;strokeColor=none;fillColor=none;" vertex="1" parent="1">
          <mxGeometry x="360" y="410" width="40" height="30" as="geometry" />
        </mxCell>
        <mxCell id="bFMFlsu8lQNefYLDcnnR-22" value="&lt;h1 style=&quot;margin-top: 0px; font-size: 21px;&quot;&gt;ALP&lt;br&gt;&lt;/h1&gt;&lt;p&gt;Application Layer Protocol - used as header for communication between server and nodes&lt;br&gt;&lt;/p&gt;" style="text;html=1;whiteSpace=wrap;overflow=hidden;rounded=0;" vertex="1" parent="1">
          <mxGeometry x="480" y="190" width="180" height="90" as="geometry" />
        </mxCell>
      </root>
    </mxGraphModel>
  </diagram>
</mxfile>
